<svg width="24" height="24" viewBox="0 0 24 24" fill="none" xmlns="http://www.w3.org/2000/svg">
  <g clip-path="url(#clip0)">
  <path d="M1.63636 21H5.45455V11.7273L0 7.63635V19.3636C0 20.2691 0.733636 21 1.63636 21Z" fill="#4285F4"/>
  <path d="M18.5454 21H22.3636C23.2691 21 24 20.2664 24 19.3636V7.63635L18.5454 11.7273" fill="#34A853"/>
  <path d="M18.5454 4.63637V11.7273L24 7.63637V5.45455C24 3.43091 21.69 2.27728 20.0727 3.49091" fill="#FBBC04"/>
  <path d="M5.45456 11.7273V4.63635L12 9.54544L18.5455 4.63635V11.7273L12 16.6364" fill="#EA4335"/>
  <path d="M0 5.45455V7.63637L5.45455 11.7273V4.63637L3.92727 3.49091C2.30727 2.27728 0 3.43091 0 5.45455" fill="#C5221F"/>
  </g>
  <defs>
  <clipPath id="clip0">
  <rect width="24" height="18" fill="white" transform="translate(0 3)"/>
  </clipPath>
  </defs>
  </svg>