<svg width="14" height="16" viewBox="0 0 14 16" fill="none" xmlns="http://www.w3.org/2000/svg">
<path d="M9.98828 11.7617V7.26172C9.98828 6.30078 9.71875 5.50391 9.17969 4.87109C8.64062 4.21484 7.91406 3.88672 7 3.88672C6.08594 3.88672 5.35938 4.21484 4.82031 4.87109C4.28125 5.50391 4.01172 6.30078 4.01172 7.26172V11.7617H9.98828ZM11.5 10.9883L13.0117 12.5V13.2383H0.988281V12.5L2.5 10.9883V7.26172C2.5 6.08984 2.79297 5.07031 3.37891 4.20312C3.98828 3.33594 4.82031 2.77344 5.875 2.51562V1.98828C5.875 1.68359 5.98047 1.42578 6.19141 1.21484C6.40234 0.980469 6.67188 0.863281 7 0.863281C7.32812 0.863281 7.59766 0.980469 7.80859 1.21484C8.01953 1.42578 8.125 1.68359 8.125 1.98828V2.51562C9.17969 2.77344 10 3.33594 10.5859 4.20312C11.1953 5.07031 11.5 6.08984 11.5 7.26172V10.9883ZM8.05469 15.0664C7.75 15.3477 7.39844 15.4883 7 15.4883C6.60156 15.4883 6.25 15.3477 5.94531 15.0664C5.64062 14.7617 5.48828 14.4102 5.48828 14.0117H8.51172C8.51172 14.4102 8.35938 14.7617 8.05469 15.0664Z" fill="#212121" fill-opacity="0.6"/>
</svg>
