<svg width="30" height="28" viewBox="0 0 30 28" fill="none" xmlns="http://www.w3.org/2000/svg">
<path d="M9.65625 20.3438C11.1562 21.7969 12.9375 22.5234 15 22.5234C17.0625 22.5234 18.8203 21.7969 20.2734 20.3438C21.7734 18.8438 22.5234 17.0625 22.5234 15C22.5234 12.9375 21.7734 11.1797 20.2734 9.72656C18.8203 8.22656 17.0625 7.47656 15 7.47656C12.9375 7.47656 11.1562 8.22656 9.65625 9.72656C8.20312 11.1797 7.47656 12.9375 7.47656 15C7.47656 17.0625 8.20312 18.8438 9.65625 20.3438ZM10.5 0.0234375H19.5L22.2422 2.97656H27.0234C27.8203 2.97656 28.5 3.28125 29.0625 3.89062C29.6719 4.5 29.9766 5.20313 29.9766 6V24C29.9766 24.7969 29.6719 25.5 29.0625 26.1094C28.5 26.7188 27.8203 27.0234 27.0234 27.0234H2.97656C2.17969 27.0234 1.47656 26.7188 0.867188 26.1094C0.304688 25.5 0.0234375 24.7969 0.0234375 24V6C0.0234375 5.20313 0.304688 4.5 0.867188 3.89062C1.47656 3.28125 2.17969 2.97656 2.97656 2.97656H7.75781L10.5 0.0234375ZM11.625 18.375C10.6875 17.4375 10.2188 16.3125 10.2188 15C10.2188 13.6875 10.6875 12.5625 11.625 11.625C12.5625 10.6875 13.6875 10.2188 15 10.2188C16.3125 10.2188 17.4375 10.6875 18.375 11.625C19.3125 12.5625 19.7812 13.6875 19.7812 15C19.7812 16.3125 19.3125 17.4375 18.375 18.375C17.4375 19.3125 16.3125 19.7812 15 19.7812C13.6875 19.7812 12.5625 19.3125 11.625 18.375Z" fill="white"/>
</svg>
