<svg width="24" height="24" viewBox="0 0 24 24" fill="none" xmlns="http://www.w3.org/2000/svg">
<path fill-rule="evenodd" clip-rule="evenodd" d="M12 24C18.6274 24 24 18.6274 24 12C24 5.37258 18.6274 0 12 0C5.37258 0 0 5.37258 0 12C0 18.6274 5.37258 24 12 24Z" fill="#E6E6E6"/>
<path d="M8.82168 13.8842C9.92793 13.4342 10.9873 13.2092 11.9998 13.2092C13.0123 13.2092 14.0623 13.4342 15.1498 13.8842C16.2561 14.3154 16.8092 14.8873 16.8092 15.5998V16.8092H7.19043V15.5998C7.19043 14.8873 7.73418 14.3154 8.82168 13.8842ZM13.6873 11.2967C13.2186 11.7654 12.6561 11.9998 11.9998 11.9998C11.3436 11.9998 10.7811 11.7654 10.3123 11.2967C9.84355 10.8279 9.60918 10.2654 9.60918 9.60918C9.60918 8.95293 9.84355 8.39043 10.3123 7.92168C10.7811 7.43418 11.3436 7.19043 11.9998 7.19043C12.6561 7.19043 13.2186 7.43418 13.6873 7.92168C14.1561 8.39043 14.3904 8.95293 14.3904 9.60918C14.3904 10.2654 14.1561 10.8279 13.6873 11.2967Z" fill="#212121" fill-opacity="0.6"/>
</svg>
