<svg width="24" height="24" viewBox="0 0 24 24" fill="none" xmlns="http://www.w3.org/2000/svg">
<path d="M3.60938 16.4062C2.54688 15.3438 2.01562 14.0469 2.01562 12.5156C2.01562 10.9844 2.54688 9.6875 3.60938 8.625C4.67188 7.53125 5.96875 6.98438 7.5 6.98438H18C19.0938 6.98438 20.0312 7.39063 20.8125 8.20312C21.5938 8.98438 21.9844 9.92188 21.9844 11.0156C21.9844 12.1094 21.5938 13.0469 20.8125 13.8281C20.0312 14.6094 19.0938 15 18 15H9.51562C8.82812 15 8.23438 14.7656 7.73438 14.2969C7.23438 13.7969 6.98438 13.2031 6.98438 12.5156C6.98438 11.8281 7.23438 11.2344 7.73438 10.7344C8.23438 10.2344 8.82812 9.98438 9.51562 9.98438H17.0156V12H9.42188C9.14062 12 9 12.1719 9 12.5156C9 12.8281 9.14062 12.9844 9.42188 12.9844H18C18.5312 12.9844 19 12.7969 19.4062 12.4219C19.8125 12.0156 20.0156 11.5469 20.0156 11.0156C20.0156 10.4844 19.8125 10.0156 19.4062 9.60938C19 9.20312 18.5312 9 18 9H7.5C6.53125 9 5.70312 9.34375 5.01562 10.0312C4.32812 10.7188 3.98438 11.5469 3.98438 12.5156C3.98438 13.4844 4.32812 14.3125 5.01562 15C5.70312 15.6562 6.53125 15.9844 7.5 15.9844H17.0156V18H7.5C5.96875 18 4.67188 17.4688 3.60938 16.4062Z" fill="#212121" fill-opacity="0.6"/>
</svg>
