<svg width="24" height="24" viewBox="0 0 24 24" fill="none" xmlns="http://www.w3.org/2000/svg">
<path d="M13.5938 16.5938C14 16.1875 14.4688 15.9844 15 15.9844C15.5312 15.9844 16 16.1875 16.4062 16.5938C16.8125 17 17.0156 17.4688 17.0156 18C17.0156 18.5312 16.8125 19 16.4062 19.4062C16 19.8125 15.5312 20.0156 15 20.0156C14.4688 20.0156 14 19.8125 13.5938 19.4062C13.1875 19 12.9844 18.5312 12.9844 18C12.9844 17.4688 13.1875 17 13.5938 16.5938ZM13.5938 10.5938C14 10.1875 14.4688 9.98438 15 9.98438C15.5312 9.98438 16 10.1875 16.4062 10.5938C16.8125 11 17.0156 11.4688 17.0156 12C17.0156 12.5312 16.8125 13 16.4062 13.4062C16 13.8125 15.5312 14.0156 15 14.0156C14.4688 14.0156 14 13.8125 13.5938 13.4062C13.1875 13 12.9844 12.5312 12.9844 12C12.9844 11.4688 13.1875 11 13.5938 10.5938ZM16.4062 7.40625C16 7.8125 15.5312 8.01562 15 8.01562C14.4688 8.01562 14 7.8125 13.5938 7.40625C13.1875 7 12.9844 6.53125 12.9844 6C12.9844 5.46875 13.1875 5 13.5938 4.59375C14 4.1875 14.4688 3.98438 15 3.98438C15.5312 3.98438 16 4.1875 16.4062 4.59375C16.8125 5 17.0156 5.46875 17.0156 6C17.0156 6.53125 16.8125 7 16.4062 7.40625ZM7.59375 4.59375C8 4.1875 8.46875 3.98438 9 3.98438C9.53125 3.98438 10 4.1875 10.4062 4.59375C10.8125 5 11.0156 5.46875 11.0156 6C11.0156 6.53125 10.8125 7 10.4062 7.40625C10 7.8125 9.53125 8.01562 9 8.01562C8.46875 8.01562 8 7.8125 7.59375 7.40625C7.1875 7 6.98438 6.53125 6.98438 6C6.98438 5.46875 7.1875 5 7.59375 4.59375ZM7.59375 10.5938C8 10.1875 8.46875 9.98438 9 9.98438C9.53125 9.98438 10 10.1875 10.4062 10.5938C10.8125 11 11.0156 11.4688 11.0156 12C11.0156 12.5312 10.8125 13 10.4062 13.4062C10 13.8125 9.53125 14.0156 9 14.0156C8.46875 14.0156 8 13.8125 7.59375 13.4062C7.1875 13 6.98438 12.5312 6.98438 12C6.98438 11.4688 7.1875 11 7.59375 10.5938ZM10.4062 16.5938C10.8125 17 11.0156 17.4688 11.0156 18C11.0156 18.5312 10.8125 19 10.4062 19.4062C10 19.8125 9.53125 20.0156 9 20.0156C8.46875 20.0156 8 19.8125 7.59375 19.4062C7.1875 19 6.98438 18.5312 6.98438 18C6.98438 17.4688 7.1875 17 7.59375 16.5938C8 16.1875 8.46875 15.9844 9 15.9844C9.53125 15.9844 10 16.1875 10.4062 16.5938Z" fill="#212121" fill-opacity="0.6"/>
</svg>
