<svg width="14" height="14" viewBox="0 0 14 14" fill="none" xmlns="http://www.w3.org/2000/svg">
<path d="M8.51172 0.25H13.75V5.48828H12.2383V2.81641L4.89062 10.1641L3.83594 9.10938L11.1836 1.76172H8.51172V0.25ZM12.2383 12.2383V7H13.75V12.2383C13.75 12.6367 13.5977 12.9883 13.293 13.293C12.9883 13.5977 12.6367 13.75 12.2383 13.75H1.76172C1.33984 13.75 0.976562 13.6094 0.671875 13.3281C0.390625 13.0234 0.25 12.6602 0.25 12.2383V1.76172C0.25 1.33984 0.390625 0.988281 0.671875 0.707031C0.976562 0.402344 1.33984 0.25 1.76172 0.25H7V1.76172H1.76172V12.2383H12.2383Z" fill="#212121" fill-opacity="0.6"/>
</svg>
