<svg width="80" height="80" viewBox="0 0 80 80" fill="none" xmlns="http://www.w3.org/2000/svg">
<path d="M31.9375 60.0625L67.9375 24.0625L62.3125 18.25L31.9375 48.625L17.6875 34.375L12.0625 40L31.9375 60.0625ZM11.6875 11.875C19.5625 4 29 0.0625 40 0.0625C51 0.0625 60.375 4 68.125 11.875C76 19.625 79.9375 29 79.9375 40C79.9375 51 76 60.4375 68.125 68.3125C60.375 76.0625 51 79.9375 40 79.9375C29 79.9375 19.5625 76.0625 11.6875 68.3125C3.9375 60.4375 0.0625 51 0.0625 40C0.0625 29 3.9375 19.625 11.6875 11.875Z" fill="#00CFA1"/>
</svg>

