<svg width="37" height="26" viewBox="0 0 37 26" fill="none" xmlns="http://www.w3.org/2000/svg">
<path d="M21.5234 14.4766H26.0234L18.5 7.02344L10.9766 14.4766H15.4766V20.5234H21.5234V14.4766ZM29.5391 10.0469C31.4609 10.1875 33.1016 10.9844 34.4609 12.4375C35.8203 13.8438 36.5 15.5312 36.5 17.5C36.5 19.5625 35.75 21.3438 34.25 22.8438C32.7969 24.2969 31.0391 25.0234 28.9766 25.0234H9.5C7.01562 25.0234 4.88281 24.1562 3.10156 22.4219C1.36719 20.6406 0.5 18.5078 0.5 16.0234C0.5 13.8203 1.27344 11.8516 2.82031 10.1172C4.41406 8.33594 6.3125 7.32812 8.51562 7.09375C9.5 5.26562 10.8828 3.78906 12.6641 2.66406C14.4453 1.53906 16.3906 0.976562 18.5 0.976562C21.0312 0.976562 23.375 1.86719 25.5312 3.64844C27.7344 5.42969 29.0703 7.5625 29.5391 10.0469Z" fill="#212121" fill-opacity="0.6"/>
</svg>
